# xmcd
# 
# Track frame offsets:
#     150
#     19091
#     35236
#     52100
#     72183
#     88770
#     107352
#     122359
#     138492
#     160895
# 
# Disc length: 2420
# 
# Revision: 0
# Processed by: cddbd v1.5.2PL0 Copyright (c) Steve Scherf et al.
# Submitted via: fre:ac v1.0.31
# 
DISCID=8409720a
DTITLE=Lucero - Hacia el millenio cd1
DYEAR=1999
DGENRE=
TTITLE0=Si no podemos amarnos
TTITLE1=No me hablen de él
TTITLE2=Vete con ella
TTITLE3=Veleta
TTITLE4=Ya no
TTITLE5=Electricidad
TTITLE6=Tu desdén
TTITLE7=Cuéntame
TTITLE8=Tu amiga fiel
TTITLE9=El número uno
EXTD=
EXTT0=
EXTT1=
EXTT2=
EXTT3=
EXTT4=
EXTT5=
EXTT6=
EXTT7=
EXTT8=
EXTT9=
PLAYORDER=
